<?xml version="1.0" encoding="utf-8"?>
<!-- Generator: Adobe Illustrator 18.1.1, SVG Export Plug-In . SVG Version: 6.00 Build 0)  -->
<!DOCTYPE svg PUBLIC "-//W3C//DTD SVG 1.1//EN" "http://www.w3.org/Graphics/SVG/1.1/DTD/svg11.dtd">
<svg version="1.1" id="Layer_1" xmlns="http://www.w3.org/2000/svg" xmlns:xlink="http://www.w3.org/1999/xlink" x="0px" y="0px"
	 viewBox="-26 244.2 848 123.6" enable-background="new -26 244.2 848 123.6" xml:space="preserve">
<path id="Your_Icon_17_" fill="#87724F" d="M103.8,329.9c-1,0-1.7,0.3-2.4,0.7L86.8,306l14.6-24.6c0.7,0.3,1.4,0.7,2.4,0.7
	c2.4,0,4.5-2.1,4.5-4.5s-2.1-4.5-4.5-4.5c-2.4,0-4.5,2.1-4.5,4.5l-28.5,0.3l-13.9-25c1.4-0.7,2.4-2.4,2.4-4.2c0-2.4-2.1-4.5-4.5-4.5
	s-4.5,2.1-4.5,4.5c0,1.7,1,3.1,2.4,4.2l-13.9,25l-29.5-0.3c0-2.4-2.1-4.5-4.5-4.5c-2.8-0.3-4.9,1.7-4.9,4.5c0,2.4,2.1,4.5,4.5,4.5
	c0.7,0,1.7-0.3,2.4-0.7L21.5,306L6.9,330.6c-0.7-0.3-1.4-0.7-2.4-0.7c-2.4,0-4.5,2.1-4.5,4.5s2.1,4.5,4.5,4.5s4.5-2.1,4.5-4.5
	l28.5-0.3l13.9,25c-1.4,0.7-2.4,2.4-2.4,4.2c0,2.4,2.1,4.5,4.5,4.5c2.4,0,4.5-2.1,4.5-4.5c0-1.7-1-3.1-2.4-4.2l13.9-25l28.5,0.3
	c0,2.4,2.1,4.5,4.5,4.5c2.4,0,4.5-2.1,4.5-4.5C108.3,332,106.2,329.9,103.8,329.9z"/>
<path id="Your_Icon_16_" fill="#87724F" d="M787.5,329.9c-1,0-1.7,0.3-2.4,0.7L770.5,306l14.6-24.6c0.7,0.3,1.4,0.7,2.4,0.7
	c2.4,0,4.5-2.1,4.5-4.5s-2.1-4.5-4.5-4.5s-4.5,2.1-4.5,4.5l-28.5,0.3l-13.9-25c1.4-0.7,2.4-2.4,2.4-4.2c0-2.4-2.1-4.5-4.5-4.5
	s-4.5,2.1-4.5,4.5c0,1.7,1,3.1,2.4,4.2l-13.9,25l-28.5-0.3c0-2.4-2.1-4.5-4.5-4.5s-4.5,2.1-4.5,4.5s2.1,4.5,4.5,4.5
	c0.7,0,1.7-0.3,2.4-0.7l14.6,24.6L692,330.6c-0.7-0.3-1.4-0.7-2.4-0.7c-2.4,0-4.5,2.1-4.5,4.5s2.1,4.5,4.5,4.5s4.5-2.1,4.5-4.5
	l28.5-0.3l13.9,25c-1.4,0.7-2.4,2.4-2.4,4.2c0,2.4,2.1,4.5,4.5,4.5s4.5-2.1,4.5-4.5c0-1.7-1-3.1-2.4-4.2l13.9-25l28.5,0.3
	c0,2.4,2.1,4.5,4.5,4.5s4.5-2.1,4.5-4.5S789.9,329.9,787.5,329.9z"/>
<path fill="#FFFFFF" stroke="#000000" stroke-miterlimit="10" d="M-26,339"/>
<path fill="#FFFFFF" stroke="#000000" stroke-miterlimit="10" d="M822,332"/>
</svg>
