<svg xmlns="http://www.w3.org/2000/svg" viewBox="-26 244.2 848 123.6" enable-background="new -26 244.2 848 123.6"><path fill="#87724F" d="M103.8 329.9c-1 0-1.7.3-2.4.7l-14.6-24.6 14.6-24.6c.7.3 1.4.7 2.4.7 2.4 0 4.5-2.1 4.5-4.5s-2.1-4.5-4.5-4.5-4.5 2.1-4.5 4.5l-28.5.3-13.9-25c1.4-.7 2.4-2.4 2.4-4.2 0-2.4-2.1-4.5-4.5-4.5s-4.5 2.1-4.5 4.5c0 1.7 1 3.1 2.4 4.2l-13.9 25-29.5-.3c0-2.4-2.1-4.5-4.5-4.5-2.8-.3-4.9 1.7-4.9 4.5 0 2.4 2.1 4.5 4.5 4.5.7 0 1.7-.3 2.4-.7l14.7 24.6-14.6 24.6c-.7-.3-1.4-.7-2.4-.7-2.4 0-4.5 2.1-4.5 4.5s2.1 4.5 4.5 4.5 4.5-2.1 4.5-4.5l28.5-.3 13.9 25c-1.4.7-2.4 2.4-2.4 4.2 0 2.4 2.1 4.5 4.5 4.5s4.5-2.1 4.5-4.5c0-1.7-1-3.1-2.4-4.2l13.9-25 28.5.3c0 2.4 2.1 4.5 4.5 4.5s4.5-2.1 4.5-4.5c1.3-2.4-.8-4.5-3.2-4.5z"/><path fill="#87724F" d="M787.5 329.9c-1 0-1.7.3-2.4.7l-14.6-24.6 14.6-24.6c.7.3 1.4.7 2.4.7 2.4 0 4.5-2.1 4.5-4.5s-2.1-4.5-4.5-4.5-4.5 2.1-4.5 4.5l-28.5.3-13.9-25c1.4-.7 2.4-2.4 2.4-4.2 0-2.4-2.1-4.5-4.5-4.5s-4.5 2.1-4.5 4.5c0 1.7 1 3.1 2.4 4.2l-13.9 25-28.5-.3c0-2.4-2.1-4.5-4.5-4.5s-4.5 2.1-4.5 4.5 2.1 4.5 4.5 4.5c.7 0 1.7-.3 2.4-.7l14.6 24.6-14.5 24.6c-.7-.3-1.4-.7-2.4-.7-2.4 0-4.5 2.1-4.5 4.5s2.1 4.5 4.5 4.5 4.5-2.1 4.5-4.5l28.5-.3 13.9 25c-1.4.7-2.4 2.4-2.4 4.2 0 2.4 2.1 4.5 4.5 4.5s4.5-2.1 4.5-4.5c0-1.7-1-3.1-2.4-4.2l13.9-25 28.5.3c0 2.4 2.1 4.5 4.5 4.5s4.5-2.1 4.5-4.5-2.2-4.5-4.6-4.5z"/><path fill="#fff" stroke="#000" stroke-miterlimit="10" d="M-26 339M822 332"/></svg>